<?xml version="1.0" encoding="utf-8"?>
<!-- Generator: Adobe Illustrator 16.0.0, SVG Export Plug-In . SVG Version: 6.00 Build 0)  -->
<!DOCTYPE svg PUBLIC "-//W3C//DTD SVG 1.1//EN" "http://www.w3.org/Graphics/SVG/1.1/DTD/svg11.dtd">
<svg version="1.1" id="Layer_1" xmlns="http://www.w3.org/2000/svg" xmlns:xlink="http://www.w3.org/1999/xlink" x="0px" y="0px"
	 width="243.575px" height="400px" viewBox="0 0 243.575 400" enable-background="new 0 0 243.575 400" xml:space="preserve">
<path d="M100.679,245.78c5.532,5.745,13.149,9.004,21.125,9.004s15.608-3.259,21.125-9.004l92.504-96.435
	c11.177-11.677,10.805-30.2-0.858-41.392c-11.691-11.206-30.215-10.791-41.392,0.857l-42.106,43.907V29.271
	C151.077,13.106,137.984,0,121.804,0c-16.165,0-29.271,13.106-29.271,29.271v123.462l-42.136-43.922
	C39.22,97.163,20.668,96.748,9.005,107.954c-11.663,11.191-12.049,29.729-0.857,41.392L100.679,245.78z"/>
<path d="M214.279,341.456H29.273C13.107,341.456,0,354.549,0,370.729S13.107,400,29.273,400h185.006
	c16.18,0,29.272-13.092,29.272-29.271S230.458,341.456,214.279,341.456z"/>
</svg>
