<svg xmlns="http://www.w3.org/2000/svg" width="327.989" height="400" viewBox="0 0 327.989 400">
	<path d="M311.92 0H16.067C10.088 0 4.597 3.327 1.819 8.63c-2.762 5.304-2.354 11.706 1.051 16.618L87.292 146.64 2.871 268.063c-3.405 4.896-3.813 11.299-1.051 16.603 2.777 5.304 8.269 8.63 14.248 8.63h279.785v90.636c0 8.882 7.188 16.068 16.068 16.068 8.882 0 16.068-7.187 16.068-16.068V277.227 16.069C327.989 7.187 320.802 0 311.92 0zM120.057 155.82c3.829-5.523 3.829-12.836 0-18.359L46.807 32.137h249.045v229.021H46.807L120.057 155.82z"/>
</svg>
