<svg xmlns="http://www.w3.org/2000/svg" width="524.79" height="400" viewBox="0 0 524.79 400">
	<path d="M336.394 400c-10.403 0-19.591-6.845-22.554-16.858l-82.508-279.229 -57.543 181.896c-2.664 8.406-9.818 14.63-18.511 16.1 -8.728 1.355-17.501-2.066-22.771-9.141l-53.49-71.725H23.518C10.53 221.043 0 210.513 0 197.525c0-12.987 10.53-23.518 23.518-23.518h67.293c7.43 0 14.411 3.503 18.855 9.462l33.118 44.396 66.891-211.443C212.775 6.637 221.858 0 232.102 0c0.069 0 0.149 0 0.229 0 10.335 0.104 19.396 6.936 22.324 16.858l80.819 273.521 48.874-179.347c2.618-9.589 10.978-16.502 20.876-17.271 10.243-0.746 19.224 4.801 23.289 13.85l30.798 68.865h41.96c12.999 0 23.519 10.53 23.519 23.519 0 12.987-10.52 23.506-23.519 23.506h-57.21c-9.278 0-17.685-5.443-21.474-13.906l-10.151-22.714L359.085 382.66c-2.756 10.151-11.92 17.226-22.438 17.341C336.555 400 336.485 400 336.394 400z"/>
</svg>
