<svg xmlns="http://www.w3.org/2000/svg" width="99.988" height="100.001" viewBox="0 0 99.988 100.001"><path d="M91.941 31.232L77.975 31.52l20.044-20.047c2.626-2.626 2.626-6.878 0-9.504 -2.625-2.625-6.878-2.625-9.503 0L68.472 22.013 68.76 8.05c0.072-3.712-2.874-6.78-6.583-6.859 -3.728 0.079-6.779 2.872-6.858 6.583l-0.63 30.673c-0.039 1.831 0.676 3.597 1.969 4.89 1.261 1.264 2.974 1.969 4.752 1.969 0.046 0 0.092 0 0.138 0l30.67-0.633c3.715-0.079 6.655-3.147 6.583-6.859C98.722 34.106 95.689 31.385 91.941 31.232z"/><path d="M38.441 54.695l-30.667 0.63c-3.711 0.079-6.659 3.15-6.583 6.859 0.076 3.708 3.101 6.55 6.858 6.583l13.967-0.289L1.969 88.529c-2.625 2.625-2.625 6.878 0 9.503 1.312 1.313 3.032 1.97 4.752 1.97 1.719 0 3.439-0.656 4.751-1.97l20.044-20.051 -0.285 13.967c-0.075 3.708 2.871 6.78 6.583 6.858 0.046 0 0.095 0 0.141 0 3.646 0 6.643-2.92 6.718-6.582L45.3 61.553c0.036-1.831-0.676-3.597-1.969-4.89S40.203 54.59 38.441 54.695z"/></svg>