<svg xmlns="http://www.w3.org/2000/svg" width="322.363" height="400" viewBox="0 0 322.363 400"><path d="M130.337 285.428c0-17.049 13.812-30.839 30.86-30.839 17.006 0 30.817 13.79 30.817 30.839 0 17.027-13.812 30.817-30.817 30.817C144.149 316.245 130.337 302.455 130.337 285.428"/><path d="M256.52 400H65.811C29.523 400 0 370.478 0 334.179V65.832C0 29.533 29.523 0 65.811 0H256.52c36.299 0 65.843 29.533 65.843 65.832v268.347C322.363 370.478 292.819 400 256.52 400zM65.811 44.197c-11.913 0-21.613 9.701-21.613 21.635v268.347c0 11.934 9.7 21.624 21.613 21.624H256.52c11.935 0 21.646-9.69 21.646-21.624V65.832c0-11.934-9.711-21.635-21.646-21.635H65.811z"/></svg>