<svg xmlns="http://www.w3.org/2000/svg" width="400.006" height="400" viewBox="0 0 400.006 400"><path d="M390.088 223.937L223.931 390.094c-13.207 13.207-34.652 13.207-47.86 0L9.931 223.937c-13.242-13.216-13.242-34.644 0-47.886L176.07 9.913c13.208-13.217 34.653-13.217 47.86 0l166.157 166.139C403.312 189.293 403.312 210.721 390.088 223.937" class="plate"/><path fill="#FFF" d="M254.259 210.283c-6.778-6.488-17.501-6.265-23.997 0.497l-12.942 13.489v-91.091c0-9.371-7.59-16.97-16.971-16.97 -9.38 0-16.97 7.599-16.97 16.97v91.803l-13.64-14.201c-6.479-6.762-17.235-7.002-23.989-0.489 -6.762 6.488-6.985 17.227-0.488 23.988l42.509 44.282c3.198 3.331 7.623 5.22 12.247 5.22s9.049-1.889 12.247-5.22l42.491-44.282C261.236 227.517 261.021 216.779 254.259 210.283z"/></svg>