<svg xmlns="http://www.w3.org/2000/svg" width="399.999" height="400" viewBox="0 0 399.999 400"><path d="M390.081 223.941L223.94 390.082c-13.209 13.225-34.671 13.225-47.888 0L9.912 223.941c-13.217-13.217-13.217-34.646 0-47.888L176.053 9.913c13.217-13.217 34.679-13.217 47.888 0l166.141 166.141C403.306 189.295 403.306 210.724 390.081 223.941" class="plate"/><path fill="#FFF" d="M185.731 267.592c-4.524 0-8.866-1.807-12.065-5.038l-42.939-43.387c-6.587-6.654-6.537-17.401 0.125-23.997 6.67-6.588 17.408-6.514 24.005 0.124l30.221 30.535 65.246-73.276c6.265-7.002 16.971-7.607 23.964-1.393 6.994 6.24 7.624 16.963 1.393 23.965l-77.278 86.782c-3.116 3.497-7.541 5.552-12.223 5.685C186.029 267.592 185.881 267.592 185.731 267.592z"/></svg>