<svg xmlns="http://www.w3.org/2000/svg" width="399.994" height="400" viewBox="0 0 399.994 400"><path d="M390.075 223.946L223.939 390.082c-13.225 13.225-34.652 13.225-47.868 0L9.918 223.946c-13.225-13.216-13.225-34.66 0-47.868L176.071 9.925c13.216-13.233 34.644-13.233 47.868 0l166.136 166.153C403.3 189.286 403.3 210.73 390.075 223.946" class="plate"/><path fill="#FFF" d="M227.453 204.375l34.9-34.909c6.629-6.629 6.629-17.368 0-23.997s-17.367-6.629-23.996 0l-34.901 34.909 -34.917-34.909c-6.629-6.629-17.368-6.629-23.997 0s-6.629 17.368 0 23.997l34.909 34.909 -34.9 34.9c-6.629 6.629-6.629 17.368 0 23.997 3.314 3.314 7.656 4.972 11.998 4.972s8.684-1.657 11.998-4.972l34.909-34.901 34.901 34.901c3.314 3.314 7.656 4.972 11.998 4.972s8.684-1.657 11.998-4.972c6.629-6.629 6.629-17.368 0-23.997L227.453 204.375z"/></svg>