<svg xmlns="http://www.w3.org/2000/svg" width="400.002" height="400" viewBox="0 0 400.002 400"><path d="M390.096 223.946L223.943 390.082c-13.208 13.225-34.652 13.225-47.877 0L9.931 223.946c-13.241-13.216-13.241-34.66 0-47.868L176.066 9.925c13.225-13.233 34.669-13.233 47.877 0l166.152 166.153C403.304 189.286 403.304 210.73 390.096 223.946" class="plate"/><path fill="#FFF" d="M189.921 271.243h-55.559V128.78h55.559c44.762 0 75.718 30.733 75.718 70.838v0.406C265.639 240.104 234.683 271.243 189.921 271.243M232.876 200.024c0-25.239-17.318-42.955-42.955-42.955H165.7v85.886h24.221c25.637 0 42.955-17.285 42.955-42.541V200.024z"/></svg>