<svg xmlns="http://www.w3.org/2000/svg" width="400.061" height="400" viewBox="0 0 400.061 400">
	<path d="M197.836 244.712c-1.95 0-3.871-0.365-5.761-1.097 -5.943-2.378-9.844-8.107-9.844-14.508V94.819c0-8.625 6.979-15.604 15.604-15.604 8.626 0 15.605 6.979 15.605 15.604v94.788l44.346-47.363c5.883-6.34 15.728-6.614 22.066-0.701 6.278 5.883 6.614 15.758 0.731 22.036l-71.35 76.196C206.188 242.975 202.073 244.712 197.836 244.712z"/>
	<path d="M200.061 400C89.729 400 0 310.272 0 200S89.729 0 200.061 0c110.271 0 200 89.729 200 200S310.332 400 200.061 400zM200.061 31.21C106.949 31.21 31.21 106.919 31.21 200c0 93.051 75.739 168.79 168.851 168.79 93.052 0 168.79-75.739 168.79-168.79C368.851 106.919 293.143 31.21 200.061 31.21z"/>
</svg>
