<svg xmlns="http://www.w3.org/2000/svg" width="2148.784" height="400" viewBox="0 0 2148.784 400">
	<path d="M2148.784 199.974c0 110.548-89.687 200.026-199.974 200.026 -110.496 0-199.975-89.479-199.975-200.026C1748.835 89.531 1838.314 0 1948.81 0 2059.097 0 2148.784 89.531 2148.784 199.974"/>
	<path d="M1274.392 199.974c0 110.548-89.687 200.026-199.975 200.026 -110.547 0-200.025-89.479-200.025-200.026C874.392 89.531 963.871 0 1074.417 0 1184.706 0 1274.392 89.531 1274.392 199.974"/>
	<path d="M399.948 199.974C399.948 310.522 310.366 400 199.974 400 89.478 400 0 310.522 0 199.974 0 89.531 89.478 0 199.974 0 310.366 0 399.948 89.531 399.948 199.974"/>
</svg>
