<svg xmlns="http://www.w3.org/2000/svg" width="81.965" height="100" viewBox="0 0 81.965 100"><path d="M51.553 60.489l-7.711 8.032V35.23c0-1.565-1.267-2.832-2.832-2.832s-2.832 1.267-2.832 2.832v33.352l-7.761-8.087c-1.084-1.134-2.873-1.179-4.005-0.083 -1.128 1.078-1.164 2.871-0.082 3.999l12.608 13.143c0.534 0.559 1.275 0.874 2.044 0.874s1.51-0.315 2.041-0.868l12.611-13.148c1.085-1.128 1.052-2.921-0.083-3.999C54.424 59.316 52.632 59.366 51.553 60.489z"/><path d="M81.655 23.949c0.033-0.072 0.11-0.105 0.138-0.18 0.409-1.123 0.066-2.379-0.846-3.143l-3.143-2.619L59.158 2.445c-0.049-0.042-0.104-0.066-0.154-0.108l-1.991-1.659c-0.72-0.598-1.671-0.7-2.556-0.459C53.782 0.086 53.097 0 52.405 0H14.279C6.405 0 0 6.242 0 13.917v72.165C0 93.755 6.405 100 14.279 100h53.409c7.871 0 14.276-6.245 14.276-13.918v-59.67C81.965 25.572 81.849 24.748 81.655 23.949zM71.312 19.971H59.131c-0.608 0-1.101-0.495-1.101-1.104V8.903L71.312 19.971zM76.301 86.083c0 4.553-3.861 8.253-8.612 8.253H14.279c-4.751 0-8.615-3.7-8.615-8.253V13.917c0-4.55 3.864-8.253 8.615-8.253h38.087v13.204c0 3.731 3.036 6.768 6.765 6.768h16.998c0.045 0.266 0.172 0.504 0.172 0.777V86.083z"/></svg>