<svg xmlns="http://www.w3.org/2000/svg" width="399.998" height="400" viewBox="0 0 399.998 400"><path d="M392.115 7.877C386.942 2.691 380.142 0.171 372.554 0L249.854 2.521c-14.836 0.315-26.625 12.591-26.336 27.438 0.314 14.861 12.524 26.927 27.438 26.336l55.849-1.155 -80.189 80.189c-10.502 10.503-10.502 27.518 0 38.02 5.252 5.252 12.131 7.878 19.011 7.878 6.879 0 13.759-2.626 19.01-7.878l80.216-80.202 -1.155 55.901c-0.289 14.849 11.5 27.124 26.335 27.438 0.185 0 0.368 0 0.552 0 14.599 0 26.572-11.671 26.888-26.335l2.521-122.713C400.149 20.113 397.287 13.05 392.115 7.877z"/><path d="M173.354 226.625c-10.503-10.503-27.518-10.503-38.021 0L55.145 306.84l1.143-55.901c0.302-14.861-11.487-27.123-26.336-27.438 -14.861-0.21-27.137 11.501-27.438 26.336L0.005 372.562c-0.145 7.325 2.704 14.389 7.876 19.562C12.924 397.164 19.764 400 26.893 400c0.184 0 0.367 0 0.551 0l122.687-2.521c14.849-0.315 26.638-12.604 26.336-27.438 -0.302-14.836-12.683-26.52-27.438-26.336l-55.875 1.155 80.202-80.216C183.857 254.142 183.857 237.128 173.354 226.625z"/></svg>