<svg xmlns="http://www.w3.org/2000/svg" width="130.417" height="100" viewBox="0 0 130.417 100"><path d="M43.424 49.001l-32.705 0.681c-4.521 0.096-8.115 3.841-8.022 8.362 0.096 4.529 4.045 8.242 8.366 8.026l12.332-0.257L3.833 85.38c-3.201 3.2-3.201 8.386 0 11.587 1.601 1.601 3.697 2.4 5.793 2.4s4.193-0.8 5.794-2.4l19.565-19.565L34.73 89.75c-0.092 4.521 3.501 8.266 8.026 8.362 0.056 0 0.115 0 0.172 0 4.445 0 8.098-3.562 8.19-8.026l0.672-32.722c0.044-2.232-0.824-4.385-2.4-5.961C47.813 49.822 45.672 48.854 43.424 49.001z"/><path d="M122.222 0H8.194C3.669 0 0 3.669 0 8.194v29.604h16.388v-21.41h97.64v67.224H67.223V100h54.999c4.529 0 8.194-3.664 8.194-8.193V8.194C130.417 3.669 126.751 0 122.222 0z"/></svg>