<svg xmlns="http://www.w3.org/2000/svg" width="644.654" height="400" viewBox="0 0 644.654 400">
	<path d="M387.884 400H256.771c-16.975 0-30.71-13.735-30.71-30.709 0-16.975 13.735-30.71 30.71-30.71h131.113c16.975 0 30.71 13.735 30.71 30.71C418.594 386.265 404.858 400 387.884 400z"/>
	<path d="M496.026 230.739H148.598c-16.974 0-30.709-13.795-30.709-30.739 0-16.974 13.735-30.709 30.709-30.709h347.429c16.974 0 30.709 13.735 30.709 30.709C526.735 216.944 513 230.739 496.026 230.739z"/>
	<path d="M613.945 61.419H30.709C13.735 61.419 0 47.684 0 30.709 0 13.735 13.735 0 30.709 0h583.236c16.974 0 30.709 13.735 30.709 30.709C644.654 47.684 630.919 61.419 613.945 61.419z"/>
</svg>
