<svg xmlns="http://www.w3.org/2000/svg" width="708.215" height="400" viewBox="0 0 708.215 400"><path d="M325.957 71.176H35.588C15.935 71.176 0 55.242 0 35.588S15.935 0 35.588 0h290.369c19.671 0 35.588 15.935 35.588 35.588S345.628 71.176 325.957 71.176z"/><path d="M302.741 400H35.588C15.935 400 0 384.083 0 364.412c0-19.67 15.935-35.588 35.588-35.588h267.153c19.671 0 35.588 15.918 35.588 35.588C338.329 384.083 322.412 400 302.741 400z"/><path d="M672.592 400H459.689c-19.67 0-35.588-15.917-35.588-35.588 0-19.67 15.918-35.588 35.588-35.588h212.902c19.671 0 35.589 15.918 35.589 35.588C708.181 384.083 692.263 400 672.592 400z"/><path d="M179.435 235.614H35.588C15.935 235.614 0 219.662 0 200.008s15.935-35.588 35.588-35.588h143.847c19.653 0 35.588 15.935 35.588 35.588S199.088 235.614 179.435 235.614z"/><path d="M672.627 235.614h-346.67c-19.653 0-35.588-15.952-35.588-35.605s15.935-35.588 35.588-35.588h346.67c19.671 0 35.588 15.935 35.588 35.588S692.298 235.614 672.627 235.614z"/><path d="M672.627 71.176H508.206c-19.671 0-35.588-15.935-35.588-35.588S488.535 0 508.206 0h164.421c19.671 0 35.588 15.935 35.588 35.588S692.298 71.176 672.627 71.176z"/></svg>