<svg xmlns="http://www.w3.org/2000/svg" width="449.309" height="399.998" viewBox="0 0 449.309 399.998">
	<path d="M244.918 399.998c-3.8 0-6.048-0.27-6.498-0.314 -6.296-0.832-10.726-6.61-9.916-12.929 0.832-6.251 6.701-10.793 12.839-9.916 2.023 0.112 48.051 4.677 103.521-50.771 56.818-56.819 56.549-110.063 56.549-110.592 -0.09-5.564 3.8-10.399 9.241-11.489 5.531-1.203 10.905 1.866 12.974 7.037l24.868 62.632c2.339 5.913-0.539 12.614-6.453 14.952 -5.891 2.294-12.591-0.539-14.952-6.453l-10.433-26.284c-7.87 23.519-23.722 54.683-55.516 86.477C308.776 394.714 261.737 399.998 244.918 399.998z"/>
	<path d="M36.361 196.196c-4.632 0-8.915-2.8-10.68-7.24l-24.869-62.62c-2.338-5.914 0.54-12.603 6.453-14.952s12.603 0.539 14.953 6.453l10.433 26.284c7.881-23.541 23.71-54.683 55.504-86.477C152.349-6.549 208.539 0.027 210.876 0.32c6.296 0.832 10.748 6.61 9.916 12.917 -0.832 6.273-6.7 10.826-12.839 9.916 -2.181-0.214-48.027-4.733-103.52 50.771 -56.303 56.302-56.538 110.097-56.538 110.637 0.045 5.542-3.868 10.354-9.309 11.411C37.845 196.117 37.103 196.196 36.361 196.196z"/>
	<path d="M367.393 141.637l-84.407-84.408c-12.592-12.613-33.03-12.613-45.622 0L76.036 218.568c-12.603 12.592-12.603 33.03 0 45.622l84.396 84.407c12.603 12.614 33.041 12.614 45.644 0L367.393 187.27C380.03 174.678 380.03 154.229 367.393 141.637zM200.095 322.381l-97.831-97.831 141.08-141.07 97.832 97.798L200.095 322.381z"/>
</svg>
