<svg xmlns="http://www.w3.org/2000/svg" width="369.089" height="400" viewBox="0 0 369.089 400"><path d="M85.278 400C38.256 399.969 0 361.729 0 314.691V85.309C0 38.271 38.256 0 85.278 0c14.8 0 29.506 3.981 42.531 11.497l198.688 114.707c26.698 15.416 42.624 43.009 42.593 73.812 0 30.817-15.926 58.38-42.593 73.78L127.809 388.487C114.784 396.019 100.078 400 85.278 400zM85.278 63.21c-10.617 0-22.068 8.457-22.068 22.099v229.383c0.016 18.487 19.646 26.729 32.994 19.043l198.688-114.691c9.938-5.71 10.987-15.216 10.987-19.027 0.031-3.827-1.049-13.334-10.987-19.059L96.204 66.25C92.716 64.229 89.043 63.21 85.278 63.21z"/></svg>