<svg xmlns="http://www.w3.org/2000/svg" width="399.985" height="399.999" viewBox="0 0 399.985 399.999">
	<path class="plate" d="M390.092 223.961l-166.153 166.12c-13.225 13.225-34.652 13.225-47.877 0L9.925 223.961c-13.233-13.225-13.233-34.677 0-47.894L176.062 9.931c13.225-13.241 34.652-13.241 47.877 0l166.153 166.137C403.283 189.284 403.283 210.736 390.092 223.961"/>
	<rect x="181.68" y="178.214" width="36.856" height="104.463" fill="#FFF"/>
	<path d="M219.149 130.046c-1.11-2.494-2.602-4.698-4.475-6.596 -1.906-1.922-4.11-3.414-6.629-4.499 -2.519-1.069-5.188-1.633-8.037-1.633 -2.851 0-5.535 0.563-8.071 1.633 -2.485 1.085-4.689 2.577-6.596 4.499 -1.914 1.897-3.405 4.102-4.475 6.596 -1.085 2.536-1.648 5.195-1.648 8.062 0 2.851 0.563 5.519 1.648 8.046 1.069 2.511 2.561 4.715 4.475 6.604 1.906 1.914 4.11 3.389 6.596 4.491 2.536 1.068 5.221 1.632 8.071 1.632 2.85 0 5.519-0.563 8.037-1.632 2.519-1.103 4.723-2.577 6.629-4.491 1.873-1.89 3.364-4.094 4.475-6.604 1.061-2.527 1.624-5.195 1.624-8.046C220.773 135.241 220.21 132.582 219.149 130.046z" fill="#FFF"/>
</svg>
